<svg xmlns="http://www.w3.org/2000/svg" xmlns:xlink="http://www.w3.org/1999/xlink" version="1.1" id="Layer_1" x="0px" y="0px" width="100px" height="100px" viewBox="0 0 100 100" enable-background="new 0 0 100 100" xml:space="preserve">
<ellipse fill="#000000" cx="40.625" cy="52.812" rx="1.875" ry="2.812"/>
<ellipse fill="#000000" cx="59.375" cy="52.812" rx="1.875" ry="2.812"/>
<path fill="#000000" d="M57.5,62.188h-15c-0.519,0-0.938,0.419-0.938,0.938s0.419,0.938,0.938,0.938h15  c0.519,0,0.938-0.419,0.938-0.938S58.019,62.188,57.5,62.188z"/>
<path fill="#000000" d="M78.125,19.062H60.217c-0.436-2.139-2.327-3.75-4.592-3.75h-11.25c-2.265,0-4.156,1.611-4.592,3.75H21.875  c-1.551,0-2.812,1.262-2.812,2.812c0,1.24,0.812,2.283,1.928,2.655l3.699,51.786l0,0v0.002c0.176,2.459,2.363,4.62,4.684,4.622  c0.002,0,0.002,0,0.002,0c0.004,0,0.006-0.002,0.009-0.002h41.232c0.003,0,0.005,0.002,0.009,0.002c0,0,0,0,0.002,0  c2.32-0.002,4.508-2.163,4.684-4.622v-0.002l0,0L79.01,24.53c1.116-0.372,1.928-1.416,1.928-2.655  C80.938,20.324,79.676,19.062,78.125,19.062z M44.375,17.188h11.25c1.222,0,2.252,0.787,2.641,1.875H41.734  C42.123,17.975,43.153,17.188,44.375,17.188z M73.439,76.184L73.439,76.184c0,0.002,0,0.002,0,0.002  c-0.104,1.474-1.471,2.871-2.809,2.876c-0.002,0-0.004,0-0.006,0h-41.25c-0.002,0-0.004,0-0.006,0  c-1.338-0.005-2.704-1.402-2.809-2.876c0,0,0,0,0-0.002l0,0l-3.679-51.497h54.236L73.439,76.184z M78.125,22.812h-56.25  c-0.517,0-0.938-0.421-0.938-0.938s0.421-0.938,0.938-0.938h56.25c0.517,0,0.938,0.421,0.938,0.938S78.642,22.812,78.125,22.812z"/>
</svg>